<svg width="38" height="24" viewBox="0 0 38 24" fill="none" xmlns="http://www.w3.org/2000/svg">
<path d="M731.783 0C722.142 0 722.142 9.88235 712.567 9.88235C702.992 9.88235 702.925 0 693.35 0C683.776 0 683.709 9.88235 674.134 9.88235C664.492 9.88235 664.492 0 654.85 0C645.209 0 645.209 9.88235 635.634 9.88235C625.992 9.88235 625.992 0 616.417 0C606.776 0 606.776 9.88235 597.201 9.88235C587.626 9.88235 587.358 0 577.783 0C568.142 0 568.142 9.88235 558.567 9.88235C548.992 9.88235 548.858 0 539.283 0C529.642 0 529.642 9.88235 520.067 9.88235C510.425 9.88235 510.425 0 500.783 0C491.142 0 491.142 9.88235 481.567 9.88235C471.925 9.88235 471.925 0 462.35 0C452.776 0 452.642 9.88235 443 9.88235C433.358 9.88235 433.358 0 423.783 0C414.142 0 414.142 9.88235 404.567 9.88235C394.925 9.88235 394.925 0 385.283 0C375.642 0 375.642 9.88235 366.067 9.88235C356.425 9.88235 356.425 0 346.85 0C337.209 0 337.209 9.88235 327.634 9.88235C317.992 9.88235 317.992 0 308.417 0C298.776 0 298.776 9.88235 289.134 9.88235C279.492 9.88235 279.492 0 269.85 0C260.209 0 260.209 9.88235 250.567 9.88235C240.925 9.88235 240.925 0 231.283 0C221.642 0 221.642 9.88235 212 9.88235C202.358 9.88235 202.358 0 192.717 0C183.075 0 183.075 9.88235 173.433 9.88235C163.791 9.88235 163.791 0 154.15 0C144.508 0 144.508 9.88235 134.933 9.88235C125.291 9.88235 125.291 0 115.65 0C106.008 0 106.008 9.88235 96.3661 9.88235C86.7243 9.88235 86.7243 0 77.0826 0C67.4409 0 67.4409 9.88235 57.7991 9.88235C48.1574 9.88235 48.1574 0 38.5157 0C29.1417 0 29.1417 9.88235 19.5 9.88235C9.85826 9.88235 9.85826 0 0.283477 0C-9.29131 0 -9.35826 9.88235 -19 9.88235V24H751V9.88235C741.358 9.88235 741.358 0 731.783 0Z" fill="white"/>
</svg>
