<svg width="57" height="34" viewBox="0 0 57 34" fill="none" xmlns="http://www.w3.org/2000/svg">
<path d="M1093.3 0C1078.9 0 1078.9 14 1064.6 14C1050.3 14 1050.2 0 1035.9 0C1021.6 0 1021.5 14 1007.2 14C992.8 14 992.8 0 978.4 0C964 0 964 14 949.7 14C935.3 14 935.3 0 921 0C906.6 0 906.6 14 892.3 14C878 14 877.6 0 863.3 0C848.9 0 848.9 14 834.6 14C820.3 14 820.1 0 805.8 0C791.4 0 791.4 14 777.1 14C762.7 14 762.7 0 748.3 0C733.9 0 733.9 14 719.6 14C705.2 14 705.2 0 690.9 0C676.6 0 676.4 14 662 14C647.6 14 647.6 0 633.3 0C618.9 0 618.9 14 604.6 14C590.2 14 590.2 0 575.8 0C561.4 0 561.4 14 547.1 14C532.7 14 532.7 0 518.4 0C504 0 504 14 489.7 14C475.3 14 475.3 0 461 0C446.6 0 446.6 14 432.2 14C417.8 14 417.8 0 403.4 0C389 0 389 14 374.6 14C360.2 14 360.2 0 345.8 0C331.4 0 331.4 14 317 14C302.6 14 302.6 0 288.2 0C273.8 0 273.8 14 259.4 14C245 14 245 0 230.6 0C216.2 0 216.2 14 201.9 14C187.5 14 187.5 0 173.1 0C158.7 0 158.7 14 144.3 14C129.9 14 129.9 0 115.5 0C101.1 0 101.1 14 86.7 14C72.3 14 72.3 0 57.9 0C43.9 0 43.9 14 29.5 14C15.1 14 15.1 0 0.799999 0C-13.5 0 -13.6 14 -28 14V34H1122V14C1107.6 14 1107.6 0 1093.3 0Z" fill="white"/>
</svg>
