<svg width="62" height="34" viewBox="0 0 62 34" fill="none" xmlns="http://www.w3.org/2000/svg"><path d="M1187.8 0c-15.65 0-15.65 14-31.19 14-15.54 0-15.65-14-31.2-14-15.54 0-15.65 14-31.19 14-15.65 0-15.65-14-31.31-14-15.65 0-15.65 14-31.19 14-15.65 0-15.65-14-31.2-14-15.65 0-15.65 14-31.194 14-15.543 0-15.978-14-31.522-14-15.652 0-15.652 14-31.195 14-15.544 0-15.761-14-31.305-14-15.652 0-15.652 14-31.195 14-15.653 0-15.653-14-31.305-14s-15.652 14-31.195 14c-15.653 0-15.652-14-31.196-14C734.87 0 734.652 14 719 14c-15.652 0-15.652-14-31.196-14-15.652 0-15.652 14-31.195 14-15.653 0-15.653-14-31.305-14s-15.652 14-31.195 14c-15.653 0-15.652-14-31.196-14-15.652 0-15.652 14-31.196 14-15.652 0-15.652-14-31.195-14-15.652 0-15.652 14-31.305 14-15.652 0-15.652-14-31.304-14s-15.652 14-31.304 14-15.652-14-31.305-14C359.652 0 359.652 14 344 14S328.348 0 312.696 0c-15.653 0-15.653 14-31.305 14S265.739 0 250.087 0s-15.652 14-31.196 14c-15.652 0-15.652-14-31.304-14s-15.652 14-31.304 14C140.63 14 140.63 0 124.978 0s-15.652 14-31.304 14S78.022 0 62.37 0C47.152 0 47.152 14 31.5 14 15.848 14 15.848 0 .304 0-15.239 0-15.348 14-31 14v20h1250V14c-15.65 0-15.65-14-31.2-14Z" fill="#fff"/></svg>