<svg width="39" height="17" viewBox="0 0 39 17" fill="none" xmlns="http://www.w3.org/2000/svg">
<path d="M752 17C745.958 17 742.803 13.6 740.252 10.8652C737.97 8.42609 736.292 6.65217 732.734 6.65217C729.109 6.65217 727.497 8.42609 725.215 10.8652C722.664 13.6 719.509 17 713.467 17C707.425 17 704.27 13.6 701.719 10.8652C699.437 8.42609 697.759 6.65217 694.201 6.65217C690.643 6.65217 688.964 8.42609 686.682 10.8652C684.131 13.6 680.976 17 674.934 17C668.892 17 665.737 13.6 663.186 10.8652C660.904 8.42609 659.226 6.65217 655.668 6.65217C652.043 6.65217 650.432 8.42609 648.149 10.8652C645.598 13.6 642.443 17 636.401 17C630.36 17 627.205 13.6 624.654 10.8652C622.371 8.42609 620.693 6.65217 617.135 6.65217C613.51 6.65217 611.899 8.42609 609.616 10.8652C606.797 13.6 603.642 17 597.6 17C591.558 17 588.403 13.6 585.852 10.8652C583.57 8.42609 581.891 6.65217 578.334 6.65217C574.708 6.65217 573.097 8.42609 570.815 10.8652C568.264 13.6 565.109 17 559.067 17C553.025 17 549.87 13.6 547.319 10.8652C545.037 8.42609 543.359 6.65217 539.801 6.65217C536.176 6.65217 534.565 8.42609 532.282 10.8652C529.597 13.6 526.442 17 520.4 17C514.358 17 511.203 13.6 508.652 10.8652C506.37 8.42609 504.691 6.65217 501.134 6.65217C497.508 6.65217 495.897 8.42609 493.615 10.8652C491.064 13.6 487.909 17 481.867 17C475.825 17 472.67 13.6 470.119 10.8652C467.837 8.42609 466.159 6.65217 462.601 6.65217C459.043 6.65217 457.365 8.42609 455.082 10.8652C452.464 13.6 449.242 17 443.2 17C437.158 17 434.003 13.6 431.452 10.8652C429.17 8.42609 427.491 6.65217 423.934 6.65217C420.309 6.65217 418.697 8.42609 416.415 10.8652C413.864 13.6 410.709 17 404.667 17C398.625 17 395.47 13.6 392.919 10.8652C390.637 8.42609 388.959 6.65217 385.401 6.65217C381.776 6.65217 380.165 8.42609 377.882 10.8652C375.331 13.6 372.176 17 366.134 17C360.093 17 356.937 13.6 354.386 10.8652C352.104 8.42609 350.426 6.65217 346.868 6.65217C343.31 6.65217 341.632 8.42609 339.349 10.8652C336.798 13.6 333.643 17 327.601 17C321.56 17 318.405 13.6 315.854 10.8652C313.571 8.42609 311.893 6.65217 308.335 6.65217C304.71 6.65217 303.099 8.42609 300.816 10.8652C298.265 13.6 295.11 17 289.069 17C283.027 17 279.872 13.6 277.321 10.8652C275.038 8.42609 273.36 6.65217 269.802 6.65217C266.177 6.65217 264.566 8.42609 262.283 10.8652C259.733 13.6 256.577 17 250.536 17C244.494 17 241.339 13.6 238.788 10.8652C236.505 8.42609 234.827 6.65217 231.269 6.65217C227.644 6.65217 226.033 8.42609 223.751 10.8652C221.2 13.6 218.045 17 212.003 17C205.961 17 202.806 13.6 200.255 10.8652C197.973 8.42609 196.294 6.65217 192.736 6.65217C189.178 6.65217 187.5 8.42609 185.218 10.8652C182.667 13.6 179.512 17 173.47 17C167.428 17 164.273 13.6 161.722 10.8652C159.44 8.42609 157.761 6.65217 154.203 6.65217C150.578 6.65217 148.967 8.42609 146.685 10.8652C144.134 13.6 140.979 17 134.937 17C128.895 17 125.74 13.6 123.189 10.8652C120.907 8.42609 119.229 6.65217 115.671 6.65217C112.046 6.65217 110.434 8.42609 108.152 10.8652C105.601 13.6 102.446 17 96.4042 17C90.3624 17 87.2073 13.6 84.6563 10.8652C82.3739 8.42609 80.6956 6.65217 77.1377 6.65217C73.5127 6.65217 71.9016 8.42609 69.6191 10.8652C66.464 13.6 63.2417 17 57.2 17C51.1583 17 48.0031 13.6 45.4522 10.8652C43.1697 8.42609 41.4915 6.65217 37.9336 6.65217C34.3085 6.65217 32.6974 8.42609 30.415 10.8652C27.864 13.6 24.7089 17 18.6671 17C12.6254 17 9.47026 13.6 6.9193 10.8652C4.56974 8.42609 2.89148 6.65217 -0.666435 6.65217C-4.29148 6.65217 -5.90261 8.42609 -8.18504 10.8652C-10.8031 13.6 -13.9583 17 -20 17V10.3478C-16.375 10.3478 -14.7638 8.57391 -12.4814 6.13478C-9.93044 3.4 -6.7753 0 -0.666435 0C5.3753 0 8.53043 3.4 11.0814 6.13478C13.3638 8.57391 15.0421 10.3478 18.6 10.3478C22.225 10.3478 23.8362 8.57391 26.1186 6.13478C28.6696 3.4 31.8918 0 37.9336 0C43.9753 0 47.1304 3.4 49.6814 6.13478C51.9638 8.57391 53.6421 10.3478 57.2 10.3478C60.825 10.3478 62.4362 8.57391 64.7186 6.13478C67.2696 3.4 70.4247 0 76.4664 0C82.5082 0 85.6633 3.4 88.2143 6.13478C90.4967 8.57391 92.1749 10.3478 95.7329 10.3478C99.3579 10.3478 100.969 8.57391 103.251 6.13478C105.802 3.4 108.958 0 114.999 0C121.041 0 124.196 3.4 126.747 6.13478C129.03 8.57391 130.708 10.3478 134.266 10.3478C137.891 10.3478 139.502 8.57391 141.784 6.13478C144.335 3.4 147.49 0 153.532 0C159.574 0 162.729 3.4 165.28 6.13478C167.562 8.57391 169.241 10.3478 172.799 10.3478C176.424 10.3478 178.035 8.57391 180.317 6.13478C182.868 3.4 186.023 0 192.065 0C198.107 0 201.262 3.4 203.813 6.13478C206.095 8.57391 207.774 10.3478 211.331 10.3478C214.957 10.3478 216.568 8.57391 218.85 6.13478C221.401 3.4 224.556 0 230.598 0C236.64 0 239.795 3.4 242.346 6.13478C244.628 8.57391 246.306 10.3478 249.864 10.3478C253.422 10.3478 255.101 8.57391 257.383 6.13478C259.934 3.4 263.089 0 269.131 0C275.173 0 278.328 3.4 280.879 6.13478C283.161 8.57391 284.839 10.3478 288.397 10.3478C292.022 10.3478 293.633 8.57391 295.916 6.13478C298.467 3.4 301.622 0 307.664 0C313.705 0 316.861 3.4 319.411 6.13478C321.694 8.57391 323.372 10.3478 326.93 10.3478C330.555 10.3478 332.166 8.57391 334.449 6.13478C337 3.4 340.155 0 346.197 0C352.238 0 355.393 3.4 357.944 6.13478C360.227 8.57391 361.905 10.3478 365.463 10.3478C369.088 10.3478 370.699 8.57391 372.982 6.13478C375.533 3.4 378.688 0 384.729 0C390.771 0 393.926 3.4 396.477 6.13478C398.76 8.57391 400.438 10.3478 403.996 10.3478C407.621 10.3478 409.232 8.57391 411.514 6.13478C414.065 3.4 417.221 0 423.262 0C429.304 0 432.459 3.4 435.01 6.13478C437.293 8.57391 438.971 10.3478 442.529 10.3478C446.154 10.3478 447.765 8.57391 450.047 6.13478C452.598 3.4 455.753 0 461.795 0C467.837 0 470.992 3.4 473.543 6.13478C475.825 8.57391 477.504 10.3478 481.062 10.3478C484.687 10.3478 486.298 8.57391 488.58 6.13478C491.131 3.4 494.286 0 500.328 0C506.37 0 509.525 3.4 512.076 6.13478C514.358 8.57391 516.036 10.3478 519.594 10.3478C523.219 10.3478 524.831 8.57391 527.113 6.13478C530.47 3.4 533.625 0 539.734 0C545.775 0 548.93 3.4 551.481 6.13478C553.764 8.57391 555.442 10.3478 559 10.3478C562.558 10.3478 564.236 8.57391 566.519 6.13478C569.07 3.4 572.225 0 578.266 0C584.308 0 587.463 3.4 590.014 6.13478C592.297 8.57391 593.975 10.3478 597.533 10.3478C601.091 10.3478 602.769 8.57391 605.051 6.13478C607.67 3.4 610.825 0 616.934 0C623.042 0 626.13 3.4 628.681 6.13478C630.964 8.57391 632.642 10.3478 636.2 10.3478C639.758 10.3478 641.436 8.57391 643.719 6.13478C646.27 3.4 649.425 0 655.466 0C661.508 0 664.663 3.4 667.214 6.13478C669.497 8.57391 671.175 10.3478 674.733 10.3478C678.358 10.3478 679.969 8.57391 682.251 6.13478C684.802 3.4 687.958 0 693.999 0C700.041 0 703.196 3.4 705.747 6.13478C708.03 8.57391 709.708 10.3478 713.266 10.3478C716.824 10.3478 718.502 8.57391 720.784 6.13478C723.335 3.4 726.49 0 732.532 0C738.574 0 741.729 3.4 744.28 6.13478C746.562 8.57391 748.241 10.3478 751.799 10.3478V17H752Z" fill="#F1F1F1"/>
</svg>
