<svg width="53" height="23" viewBox="0 0 53 23" fill="none" xmlns="http://www.w3.org/2000/svg">
<path d="M1024 23C1015.78 23 1011.49 18.4 1008.02 14.7C1004.92 11.4 1002.63 9 997.796 9C992.865 9 990.674 11.4 987.57 14.7C984.1 18.4 979.809 23 971.591 23C963.374 23 959.083 18.4 955.613 14.7C952.509 11.4 950.226 9 945.387 9C940.548 9 938.265 11.4 935.161 14.7C931.691 18.4 927.4 23 919.183 23C910.965 23 906.674 18.4 903.204 14.7C900.1 11.4 897.817 9 892.978 9C888.048 9 885.857 11.4 882.752 14.7C879.283 18.4 874.991 23 866.774 23C858.557 23 854.265 18.4 850.796 14.7C847.691 11.4 845.409 9 840.57 9C835.639 9 833.448 11.4 830.344 14.7C826.509 18.4 822.217 23 814 23C805.783 23 801.491 18.4 798.022 14.7C794.917 11.4 792.635 9 787.796 9C782.865 9 780.674 11.4 777.57 14.7C774.1 18.4 769.809 23 761.591 23C753.374 23 749.083 18.4 745.613 14.7C742.509 11.4 740.226 9 735.387 9C730.457 9 728.265 11.4 725.161 14.7C721.509 18.4 717.217 23 709 23C700.783 23 696.491 18.4 693.022 14.7C689.917 11.4 687.635 9 682.796 9C677.865 9 675.674 11.4 672.57 14.7C669.1 18.4 664.809 23 656.591 23C648.374 23 644.083 18.4 640.613 14.7C637.509 11.4 635.226 9 630.387 9C625.548 9 623.265 11.4 620.161 14.7C616.6 18.4 612.217 23 604 23C595.783 23 591.491 18.4 588.022 14.7C584.917 11.4 582.635 9 577.796 9C572.865 9 570.674 11.4 567.57 14.7C564.1 18.4 559.809 23 551.591 23C543.374 23 539.083 18.4 535.613 14.7C532.509 11.4 530.226 9 525.387 9C520.457 9 518.265 11.4 515.161 14.7C511.691 18.4 507.4 23 499.183 23C490.965 23 486.674 18.4 483.204 14.7C480.1 11.4 477.817 9 472.978 9C468.139 9 465.857 11.4 462.752 14.7C459.283 18.4 454.991 23 446.774 23C438.557 23 434.265 18.4 430.796 14.7C427.691 11.4 425.409 9 420.57 9C415.639 9 413.448 11.4 410.343 14.7C406.874 18.4 402.583 23 394.365 23C386.148 23 381.857 18.4 378.387 14.7C375.283 11.4 373 9 368.161 9C363.23 9 361.039 11.4 357.935 14.7C354.465 18.4 350.174 23 341.957 23C333.739 23 329.448 18.4 325.978 14.7C322.874 11.4 320.591 9 315.752 9C310.822 9 308.63 11.4 305.526 14.7C302.057 18.4 297.765 23 289.548 23C281.33 23 277.039 18.4 273.57 14.7C270.465 11.4 268.183 9 263.343 9C258.504 9 256.222 11.4 253.117 14.7C249.648 18.4 245.357 23 237.139 23C228.922 23 224.63 18.4 221.161 14.7C218.057 11.4 215.774 9 210.935 9C206.004 9 203.813 11.4 200.709 14.7C197.239 18.4 192.948 23 184.73 23C176.513 23 172.222 18.4 168.752 14.7C165.648 11.4 163.365 9 158.526 9C153.596 9 151.404 11.4 148.3 14.7C144.83 18.4 140.539 23 132.322 23C124.104 23 119.813 18.4 116.343 14.7C113.239 11.4 110.957 9 106.117 9C101.187 9 98.9957 11.4 95.8913 14.7C91.6 18.4 87.2174 23 79 23C70.7826 23 66.4913 18.4 63.0217 14.7C59.9174 11.4 57.6348 9 52.7957 9C47.8652 9 45.6739 11.4 42.5696 14.7C39.1 18.4 34.8087 23 26.5913 23C18.3739 23 14.0826 18.4 10.613 14.7C7.41739 11.4 5.13478 9 0.295652 9C-4.63478 9 -6.82609 11.4 -9.93043 14.7C-13.4913 18.4 -17.7826 23 -26 23V14C-21.0696 14 -18.8783 11.6 -15.7739 8.3C-12.3043 4.6 -8.01304 0 0.295652 0C8.51304 0 12.8043 4.6 16.2739 8.3C19.3783 11.6 21.6609 14 26.5 14C31.4304 14 33.6217 11.6 36.7261 8.3C40.1956 4.6 44.5783 0 52.7957 0C61.013 0 65.3044 4.6 68.7739 8.3C71.8783 11.6 74.1609 14 79 14C83.9304 14 86.1217 11.6 89.2261 8.3C92.6957 4.6 96.987 0 105.204 0C113.422 0 117.713 4.6 121.183 8.3C124.287 11.6 126.57 14 131.409 14C136.339 14 138.53 11.6 141.635 8.3C145.104 4.6 149.396 0 157.613 0C165.83 0 170.122 4.6 173.591 8.3C176.696 11.6 178.978 14 183.817 14C188.748 14 190.939 11.6 194.043 8.3C197.513 4.6 201.804 0 210.022 0C218.239 0 222.53 4.6 226 8.3C229.104 11.6 231.387 14 236.226 14C241.157 14 243.348 11.6 246.452 8.3C249.922 4.6 254.213 0 262.43 0C270.648 0 274.939 4.6 278.409 8.3C281.513 11.6 283.796 14 288.635 14C293.565 14 295.757 11.6 298.861 8.3C302.33 4.6 306.622 0 314.839 0C323.057 0 327.348 4.6 330.817 8.3C333.922 11.6 336.204 14 341.043 14C345.883 14 348.165 11.6 351.27 8.3C354.739 4.6 359.03 0 367.248 0C375.465 0 379.757 4.6 383.226 8.3C386.33 11.6 388.613 14 393.452 14C398.383 14 400.574 11.6 403.678 8.3C407.148 4.6 411.439 0 419.657 0C427.874 0 432.165 4.6 435.635 8.3C438.739 11.6 441.022 14 445.861 14C450.791 14 452.983 11.6 456.087 8.3C459.557 4.6 463.848 0 472.065 0C480.283 0 484.574 4.6 488.044 8.3C491.148 11.6 493.43 14 498.27 14C503.2 14 505.391 11.6 508.496 8.3C511.965 4.6 516.257 0 524.474 0C532.691 0 536.983 4.6 540.452 8.3C543.557 11.6 545.839 14 550.678 14C555.609 14 557.8 11.6 560.904 8.3C564.374 4.6 568.665 0 576.883 0C585.1 0 589.391 4.6 592.861 8.3C595.965 11.6 598.248 14 603.087 14C608.017 14 610.209 11.6 613.313 8.3C616.783 4.6 621.074 0 629.291 0C637.509 0 641.8 4.6 645.27 8.3C648.374 11.6 650.657 14 655.496 14C660.426 14 662.617 11.6 665.722 8.3C669.191 4.6 673.483 0 681.7 0C689.917 0 694.209 4.6 697.678 8.3C700.783 11.6 703.065 14 707.904 14C712.835 14 715.026 11.6 718.13 8.3C722.696 4.6 726.987 0 735.296 0C743.513 0 747.804 4.6 751.274 8.3C754.378 11.6 756.661 14 761.5 14C766.339 14 768.622 11.6 771.726 8.3C775.196 4.6 779.487 0 787.704 0C795.922 0 800.213 4.6 803.683 8.3C806.787 11.6 809.07 14 813.909 14C818.748 14 821.03 11.6 824.135 8.3C827.696 4.6 831.987 0 840.296 0C848.604 0 852.804 4.6 856.274 8.3C859.378 11.6 861.661 14 866.5 14C871.339 14 873.622 11.6 876.726 8.3C880.196 4.6 884.487 0 892.704 0C900.922 0 905.213 4.6 908.683 8.3C911.787 11.6 914.07 14 918.909 14C923.839 14 926.03 11.6 929.135 8.3C932.604 4.6 936.896 0 945.113 0C953.33 0 957.622 4.6 961.091 8.3C964.196 11.6 966.478 14 971.317 14C976.157 14 978.439 11.6 981.544 8.3C985.013 4.6 989.304 0 997.522 0C1005.74 0 1010.03 4.6 1013.5 8.3C1016.6 11.6 1018.89 14 1023.73 14V23H1024Z" fill="#F1F1F1"/>
</svg>
