<svg xmlns="http://www.w3.org/2000/svg">
    <symbol viewBox="0 0 18 18" id="icon-search" fill="currentColor">
      <path d="m17.7 16.06-3.48-3.48a7.63 7.63 0 0 0 1.53-4.7c0-4.4-3.48-7.88-7.88-7.88A7.81 7.81 0 0 0 0 7.88c0 4.4 3.48 7.87 7.88 7.87 1.73 0 3.37-.61 4.7-1.53l3.48 3.47c.2.2.4.31.82.31.6 0 1.12-.51 1.12-1.13 0-.2-.1-.5-.3-.81ZM2.24 7.88a5.67 5.67 0 0 1 5.63-5.63 5.67 5.67 0 0 1 5.62 5.63 5.67 5.67 0 0 1-5.63 5.62 5.67 5.67 0 0 1-5.62-5.63Z"/>
    </symbol>

    <symbol viewBox="0 0 21 18" id="icon-cart" fill="currentColor">
      <path d="M20.19 6.86h-3.55L13.19.38c-.2-.38-.61-.48-1.02-.28-.4.19-.5.57-.3.95l3.14 5.8H5.78l3.15-5.8c.2-.38 0-.76-.3-.95A.82.82 0 0 0 7.6.38L4.16 6.86H.8c-.4 0-.81.28-.81.76 0 .38.3.76.81.76h.2l.92 2.86c-.2.1-.3.28-.3.57 0 .38.3.67.7.67L4.06 18h12.88l1.73-5.52c.4 0 .7-.29.7-.67 0-.2-.1-.48-.3-.57L20 8.38h.2c.4 0 .81-.28.81-.76s-.4-.76-.81-.76Zm-4.57 9.62H5.07l-1.21-4.1h13.08l-1.32 4.1Zm1.63-5.53H3.35L2.54 8.3h15.52l-.81 2.66Z" />
    </symbol>

    <symbol viewBox="0 0 50 26" id="icon-arrow" fill="currentColor">
      <path d="M50 11H7.7l8.1-8.2L13 0 0 13l13 13 2.8-2.8L7.7 15H50v-4Z"/>
    </symbol>

    <symbol viewBox="0 0 102 34" id="icon-logo-footer" fill="currentColor">
      <path d="M19.22 21.38c-.1-2.68-.5-5.27-.5-7.95 0-2.2.4-4.38-.4-6.47 0-.2.1-.5.1-.7.2-.99-3.3-.5-3.8.5-.3.3-.5.6-.4 1 0 .1.1.2.1.3-.7 3.18-1.6 6.26-2.6 9.34-.4 1.2-.9 2.3-1.3 3.48-.6-1.09-1.2-2.18-1.6-3.38-1.4-3.38-2.6-6.86-4.3-10.14.2-1.5-3.2-1.4-3.9 0-.8 1.69-.7 3.38-.4 5.17.3 1.99.4 3.98.4 6.07 0 3.97.4 7.85.4 11.83-.4.4-.5.9-.1 1.4.2.2.4.4.6.5 1 .69 3.6.09 3.6-1.3 0-4.08-.3-8.16-.4-12.33v-1.2c.1.1.1.3.2.4.6 1.6 1.3 3.18 2.2 4.67.9 1.5 1.3 3.09 1.8 4.68-.2.2-.3.5-.2.7 0 .2.1.3.3.4.6.49 1.8.3 2.5 0 .3-.1.6-.3.8-.4.3-.2.9-.7.7-1.2 0-.1-.1-.2-.1-.3.5-1.29.7-2.58 1-3.88.3-1.39.8-2.78 1.3-4.07.1.6.1 1.2.2 1.89.2 2.58 0 5.07 0 7.55 0 .8.1 1.6.2 2.5.1.29.4 1.78.3 1.88-.8.5-.6 1.1.2 1.3.9.2 2.1-.1 2.8-.7 1.2-1.1.6-2.79.4-4.18-.5-2.39 0-4.97-.1-7.36ZM27.62 22.08c-.1-2-.8-3.88-.8-5.87 0-2.29.2-4.57-.2-6.86-.1-.7-4.1.1-3.9 1 .3 2.08.2 4.17.2 6.36 0 1.99.5 3.88.7 5.86.3 2.1-.1 4.18.1 6.17.1 1 .8 2.69.1 3.58-.4.5 1.5.3 1.6.3.8-.1 1.8-.4 2.3-1 .7-.8.2-2.38.1-3.38-.3-1.99-.1-4.17-.2-6.16ZM43.92 18.8c-2.1-2.79-5.9-.8-8.6-1.5-1.4-.4-1.4-2.28-1.4-3.38 0-1.39-.1-2.68-.3-4.07-.1-1.1 0-2.1.7-2.89.1-.1.9-.3.8-.3.4-.1.7-.1 1.1-.1 1.5-.1 4.6.2 4 2.49-.3 1 3.6.4 3.9-.6 1.2-4.57-7.3-3.68-9.7-3.08-2.2.6-4.6 1.79-4.8 4.38-.1 1.19.3 2.38.3 3.58.1 1.39-.2 2.78.3 4.07 1.1 2.99 5.5 1.6 7.8 1.7 3.8.3 2.7 5.46 2.7 7.85 0 1.3 1.2 3.38.2 4.48-.6.7-2 .7-2.8.8-.8.1-2.2.29-2.7-.5-1-1.4.1-3.79-.1-5.38-.1-.9-4.1-.1-3.9 1 .3 2.58-1.4 6.06 2.4 6.56 2.4.3 5.2-.2 7.5-.9 1.2-.4 2.3-.89 3.2-1.78 1-.9.7-2.3.4-3.48-.5-3.09.9-6.47-1-8.95ZM61.32 18.6c-.1-3.78-.7-7.46-.7-11.24 0-1.99-4-1.3-4 .3 0 3.58.5 7.16.7 10.74v.2c-1.9 0-3.9.2-5.9.2.2-4.58-.6-9.15-.4-13.83 0-.6-3.9-.1-3.9 1-.2 4.47.6 8.85.5 13.32l-.3 6.37c0 1.1.2 2.19.3 3.28.1 1 .5 2.29.2 3.28-.2.8 3.6.3 3.9-.7.5-1.79-.2-3.97-.4-5.76-.2-1.7 0-3.48.1-5.17 2-.1 4.1-.3 6.1 0l.3 4.07c.1 1.2.2 2.29.2 3.48 0 1 .1 2.49-.2 3.48-.8 2.1 3.1 1.9 3.7.4.7-1.89.5-4.17.4-6.16-.2-2.49-.6-4.88-.6-7.26ZM78.22 22.97c-.9-2.78-2.4-5.17-3.6-7.75 1-1.9 2-3.88 2.9-5.87.8-1.8 1.4-3.78 3.1-5.07.6-.4.6-.9-.3-1-.9-.1-2.1.2-2.8.7-1.4 1.3-2.4 2.68-3.1 4.37-.9 2.1-1.9 4.08-2.9 6.07-.1.1-.1.3-.2.4-.5.3-.8.8-.6 1.3a66.9 66.9 0 0 1-2.5 4.57c-.3-5.47-1-11.04-1.2-16.51 0-1.3-4-.5-3.9 1 .2 6.85 1.2 13.62 1.3 20.48v.1c-.3.3-.2.5.1.6 0 1.78-.1 3.47-.2 5.26-.5.7.5 1.1 1.1 1.1h.1c.7 0 2.6-.3 2.7-1.4.2-2.08.3-4.17.2-6.26 1.6-1.69 2.9-3.58 4.1-5.57.8 1.5 1.5 2.99 2 4.58.9 2.68 2.3 5.27 3.1 7.95.5 1.8 4.5.7 3.9-1-1-2.78-2.4-5.26-3.3-8.05ZM101.72 18.4c-.2-.8-1.4-.8-2.3-.8v-1c-.1-2.68-.2-5.36-.4-7.95-.2-2.48-1.6-3.28-4-3.18-2.4.1-5.2.5-7.5 1.4-2.6.99-4.1 2.88-4.6 5.66-.5 2.98.2 6.17.4 9.15.2 3.48.1 6.96.1 10.44 0 .6 3.9 0 3.9-1v-8.25c0-.8-.1-1.59-.1-2.38 1.4-.6 3.7 0 5.1.1 1.1.1 2.2-.2 3.2-.3 0 2.29.1 4.57.2 6.86 0 1.2.5 3.48-.4 4.47-.4.5 1.5.3 1.6.3.8-.1 1.8-.4 2.3-1 .9-1.09.5-3.77.4-5.06-.1-1.9-.1-3.78-.1-5.67 1.1-.2 2.4-.9 2.2-1.8Zm-14.6-.1-.3-3.68c-.2-2.29.1-5.57 2.3-6.96.6-.4 1.7-.3 2.4-.4 1-.2 2-.4 2.8.2 1.2.8.9 3.68.9 4.87 0 2 .2 3.98.3 5.97-.6.1-1.1.1-1.7.1-2.3-.2-4.6-.6-6.7-.1ZM24.22 6.66c.5-.1 1-.2 1.5-.5l.2-.2c.5-.3 1-.79.7-1.39-.5-1.09-.4-2.18-.4-3.38 0-1-1-1.19-1.8-1.19-.7.1-2.2.6-2.2 1.5 0 .99-.1 1.98.1 2.98 0 .1-.1.2-.1.4-.1.2 0 .4.1.59v.4c.1.2.2.4.4.5.6.3 1.1.3 1.5.3Z"/>
    </symbol>

    <symbol viewBox="0 0 28 18" id="icon-vk" fill="currentColor">
      <path d="M.741 2.433c0-.855.515-1.316 1.545-1.383l3.97.025a.52.52 0 0 1 .533.377c.409 1.258.866 2.343 1.372 3.257.506.914 1.168 1.966 1.985 3.156.071.151.186.227.346.227.125 0 .222-.06.293-.177l.08-.276.027-4.35c0-.303-.075-.504-.226-.604-.151-.1-.431-.176-.84-.227-.32-.05-.48-.234-.48-.553 0-.067.01-.117.027-.15C9.746.664 10.813.12 12.571.12l1.492-.026c.675 0 1.234.16 1.678.478.444.319.666.822.666 1.51V7.79a.63.63 0 0 0 .347.125c.266 0 .497-.15.692-.452 1.954-2.582 3.011-4.309 3.17-5.18 0-.017.019-.06.054-.126.124-.252.329-.47.613-.654.284-.185.533-.31.746-.377a.555.555 0 0 1 .24-.05h4.13l.266.024c.355 0 .63.16.826.478.07.1.12.21.146.327.027.117.045.235.054.352.009.118.013.185.013.201v.176c-.124.688-.44 1.421-.946 2.2-.506.78-1.15 1.623-1.931 2.528-.782.906-1.27 1.5-1.466 1.786-.16.2-.24.385-.24.553 0 .134.071.285.213.453l3.89 4.627c.213.268.32.561.32.88 0 .386-.16.704-.48.956-.32.251-.701.394-1.145.427l-.453.025h-4.05a.861.861 0 0 0-.106.013.864.864 0 0 1-.107.012c-.39 0-.755-.159-1.092-.477-.125-.134-.96-1.124-2.505-2.968a1.385 1.385 0 0 0-.373-.327c-.07.269-.164.654-.28 1.157-.115.503-.2.864-.253 1.082l-.08.427c-.177.587-.55.939-1.119 1.056l-.373.025h-2.61c-1.475 0-2.945-.637-4.41-1.91-1.466-1.275-2.784-2.922-3.957-4.943C2.98 8.197 1.887 5.845.874 3.163a1.916 1.916 0 0 1-.133-.73Zm16.013 6.514c-.373 0-.71-.097-1.013-.29-.302-.192-.453-.457-.453-.792V2.081c0-.335-.089-.574-.266-.717-.178-.142-.489-.213-.933-.213l-1.518.05c-.764 0-1.341.126-1.732.377.781.352 1.172.922 1.172 1.71v4.426a1.5 1.5 0 0 1-.533 1.044 1.59 1.59 0 0 1-1.066.415c-.532 0-.94-.243-1.225-.73C7.8 6.466 6.77 4.589 6.097 2.81l-.24-.653-3.544-.026c-.231 0-.36.013-.386.038-.027.025-.04.097-.04.214 0 .15.017.31.053.478l.56 1.408c1.491 3.638 3.112 6.505 4.862 8.6 1.75 2.096 3.468 3.144 5.155 3.144h2.665c.106 0 .186-.03.24-.088.053-.059.097-.172.133-.34l.053-.25.506-2.214c.142-.302.267-.503.373-.603a.975.975 0 0 1 .693-.277c.426 0 .861.243 1.305.73l2.265 2.715c.142.218.293.327.453.327h4.396c.533 0 .8-.126.8-.377a.466.466 0 0 0-.08-.252l-3.864-4.551c-.302-.352-.453-.73-.453-1.132 0-.402.142-.788.427-1.157.23-.335.679-.893 1.345-1.672a37.716 37.716 0 0 0 1.745-2.188c.498-.679.826-1.295.986-1.848l.08-.327a.371.371 0 0 1-.027-.164.572.572 0 0 0-.026-.188h-4.183c-.267.1-.48.251-.64.452l-.16.478c-.444 1.157-1.607 2.942-3.49 5.357a1.892 1.892 0 0 1-1.305.503Z"/>
    </symbol>

    <symbol viewBox="0 0 24 20" id="icon-youtube" fill="currentColor">
      <path d="m15.85 9.293-5.236-3.491a.655.655 0 0 0-1.014.545v6.982a.655.655 0 0 0 1.014.546l5.237-3.491a.655.655 0 0 0 0-1.091Zm-4.94 2.814V7.57l3.403 2.27-3.404 2.268Zm12.48-8.563a2.4 2.4 0 0 0-1.452-1.637C18.218.478 12.251.5 12 .5c-.25 0-6.218-.022-9.938 1.407A2.4 2.4 0 0 0 .61 3.544C.327 4.613 0 6.576 0 9.838c0 3.262.327 5.226.61 6.295a2.4 2.4 0 0 0 1.452 1.636c3.72 1.43 9.687 1.407 9.938 1.407h.076c.753 0 6.317-.043 9.862-1.407a2.4 2.4 0 0 0 1.451-1.636c.284-1.07.611-3.033.611-6.295s-.327-5.225-.61-6.294Zm-1.266 12.261a1.09 1.09 0 0 1-.655.742c-3.49 1.342-9.404 1.32-9.469 1.32-.066 0-5.978.022-9.47-1.32a1.09 1.09 0 0 1-.654-.742c-.261-1.003-.567-2.847-.567-5.967 0-3.12.306-4.963.567-5.967a1.09 1.09 0 0 1 .655-.742C6.02 1.787 11.934 1.81 12 1.81c.066 0 5.978-.022 9.47 1.32a1.092 1.092 0 0 1 .654.742c.262 1.004.567 2.847.567 5.967 0 3.12-.305 4.964-.567 5.968Z"/>
    </symbol>

    <symbol viewBox="0 0 20 18" id="icon-tg" fill="currentColor">
      <path fill-rule="evenodd" clip-rule="evenodd" d="M19.4608.6529a.65654.65654 0 0 1 .2264.61158L17.0611 17.0214a.65688.65688 0 0 1-.3866.4945.6564.6564 0 0 1-.6252-.0562l-7.87848-5.2523a.65654.65654 0 0 1-.14849-.9564L10.633 7.98773 6.27303 10.8944c-.19603.1306-.44706.1463-.65779.0409L.36294 8.30915c-.23525-.11762-.3776-.36427-.36174-.6268.01585-.26252.18684-.49025.43453-.57871L18.8188.53826a.65658.65658 0 0 1 .642.11464ZM2.32626 7.82275l3.53542 1.76771L13.4231 4.5495c.2694-.17956.6294-.13601.8481.1026.2188.2386.231.60104.0288.85381L9.49502 11.5121l6.43778 4.2918 2.2755-13.65332L2.32626 7.82275Z"/>
    </symbol>

    <symbol viewBox="0 0 27 34" id="icon-academy" fill="currentColor">
      <path d="M13.65 0h-.1L0 1.4v24.62L13.55 34 27 26.02V1.4L13.65 0ZM25.1 12.06 13.55 5.28v-.1h-.1l-.1-.1v.1L1.9 12.06V3.1l11.54-1.2 11.64 1.2v8.97ZM13.45 6.78l11.54 6.68-4.51 2.6-7.13-4.2v1.4l5.92 3.5-.9.49-5.02-3v1.4l3.81 2.3-.8.5-3.01-1.8v1.4l1.9 1.1-1.8 1.1-11.44-6.69 11.44-6.78ZM1.91 15.06l11.44 6.78v1l-7.93-4.7v1.4l8.03 4.79v1.1l-8.03-4.7v1.4l8.03 4.8 8.13-4.9v-5.18l3.41-2v9.98L13.45 31.7 1.91 24.93v-9.87Z"/>
    </symbol>

    <symbol viewBox="0 0 40 62" id="lamp" fill="none">
      <g fill="#149080">
        <path d="M15.162 37.717c-.3.995-.2 2.19 0 3.582.499 2.588 1.696 5.971 2.394 9.654h5.087c.698-3.583 1.895-6.967 2.494-9.654.3-1.393.3-2.687 0-3.582-.3-.896-.898-1.593-1.995-2.29h-5.985c-1.197.697-1.796 1.394-1.995 2.29ZM26.933 57.621H13.167c-1.297 0-2.294.995-2.294 2.19V62h18.354v-2.19c0-1.194-.998-2.189-2.294-2.189ZM34.015 2.19h-11.67C22.344.994 21.346 0 20.05 0s-2.294.995-2.294 2.19H6.085L0 27.566c.798-.498 1.596-.995 2.594-.995 1.396 0 2.194.796 2.892 1.393.699.597 1.197.796 1.397.796.299 0 .798-.299 1.496-.796.698-.498 1.596-1.393 2.893-1.393 1.297 0 2.194.796 2.893 1.393.698.497 1.197.796 1.496.796.1 0 .3-.1.598-.199.2-.1.5-.398.898-.597.499-.398 1.097-.995 1.995-1.194.3-.1.599-.1.898-.1 1.297 0 2.194.796 2.893 1.393.698.498 1.197.797 1.496.797.3 0 .798-.299 1.396-.797.699-.597 1.596-1.393 2.893-1.393 1.397 0 2.195.796 2.893 1.393.3.299.598.498.898.598.2.1.399.199.598.199.3 0 .798-.299 1.397-.896.698-.597 1.596-1.393 2.892-1.393.998 0 1.796.497 2.594.995L34.015 2.189ZM23.442 53.143h-6.883c-.699 0-1.098.497-1.098 1.094 0 .597.5 1.095 1.098 1.095h6.883c.698 0 1.097-.498 1.097-1.095.1-.597-.4-1.094-1.098-1.094Z"/>
        <path d="M20.05 28.76c-.1 0-.3.1-.599.199-.2.1-.399.298-.598.398v3.682h2.294v-3.583c-.499-.398-.898-.696-1.097-.696Z"/>
      </g>
    </symbol>

    <symbol viewBox="0 0 60 60" id="lego" fill="none">
      <path d="M0 43.993 27.4 60V36.544L0 20.436v23.557Zm51.3-31.51V15c0 1.812-3.5 3.322-7.7 3.322-4.3 0-7.7-1.51-7.7-3.322v-4.127c.3 1.71 3.6 3.12 7.7 3.12 4.3 0 7.7-1.51 7.7-3.322S47.8 7.35 43.6 7.35h-1l-5-2.92V7.55c0 1.812-3.5 3.323-7.7 3.323-2.7 0-5-.604-6.4-1.51-.2-.202-.4-.403-.7-.605-.4-.402-.6-.805-.6-1.208V4.53L17.4 7.35h-1.1c-4.3 0-7.7 1.51-7.7 3.322s3.5 3.322 7.7 3.322c4.1 0 7.4-1.41 7.7-3.12V15c0 1.812-3.5 3.322-7.7 3.322-4.3 0-7.7-1.51-7.7-3.322v-2.416l-6 3.523 27.5 16.108 27.4-16.007-6.2-3.725ZM37.7 22.752c0 1.812-3.5 3.322-7.7 3.322-4.3 0-7.7-1.51-7.7-3.322v-4.128c.3 1.712 3.6 3.121 7.7 3.121s7.4-1.41 7.7-3.12v4.127Zm-5.1 13.993V60L60 43.993V20.738L32.6 36.745Zm-2.7-30.1c4.3 0 7.7-1.51 7.7-3.323C37.6 1.51 34.1 0 29.9 0c-4.3 0-7.7 1.51-7.7 3.322s3.4 3.322 7.7 3.322Z" fill="#149080"/>
    </symbol>

    <symbol viewBox="0 0 47 27" id="carpet" fill="none">
      <path d="M43.0665 0H3.93347C1.71459 0 0 1.68132 0 3.85714V23.1429C0 25.3187 1.71459 27 3.93347 27H43.0665C45.2854 27 47 25.3187 47 23.1429V3.85714C47 1.78022 45.1845 0 43.0665 0ZM3.02575 24.7253V2.76923H43.5708V24.7253H3.02575Z" fill="#63D1BB"/>
      <path d="M6.95925 20.8683H39.6374V6.62659H6.95925V20.8683ZM23.5 8.50571C26.4249 8.50571 28.8455 10.8793 28.8455 13.7475C28.8455 16.6156 26.4249 18.9892 23.5 18.9892C20.5751 18.9892 18.1545 16.6156 18.1545 13.7475C18.1545 10.7804 20.5751 8.50571 23.5 8.50571Z" fill="#63D1BB"/>
    </symbol>

    <symbol viewBox="0 0 33 38" id="flower" fill="none">
      <path d="M16.5 38C25.575 38 33 30.6452 33 21.6559C23.925 21.6559 16.5 28.9086 16.5 38ZM4.74375 16.6505C4.74375 19.2043 6.80625 21.1452 9.28125 21.1452C10.2094 21.1452 11.1375 20.8387 11.8594 20.328V20.6344C11.8594 23.1882 13.9219 25.129 16.3969 25.129C18.975 25.129 20.9344 23.086 20.9344 20.6344V20.328C21.6562 20.8387 22.5844 21.1452 23.5125 21.1452C26.0906 21.1452 28.05 19.1021 28.05 16.6505C28.05 14.8118 27.0188 13.2796 25.4719 12.5645C27.0188 11.8495 28.05 10.3172 28.05 8.47849C28.05 5.92473 25.9875 3.98387 23.5125 3.98387C22.5844 3.98387 21.6562 4.29032 20.9344 4.80107V4.49462C20.9344 1.94086 18.8719 0 16.3969 0C13.8187 0 11.8594 2.04301 11.8594 4.49462V4.80107C11.1375 4.29032 10.2094 3.98387 9.28125 3.98387C6.70312 3.98387 4.74375 6.02688 4.74375 8.47849C4.74375 10.3172 5.775 11.8495 7.32188 12.5645C5.87813 13.2796 4.74375 14.8118 4.74375 16.6505ZM16.5 7.96774C19.0781 7.96774 21.0375 10.0108 21.0375 12.4624C21.0375 15.0161 18.975 16.957 16.5 16.957C13.9219 16.957 11.9625 14.914 11.9625 12.4624C11.9625 10.0108 13.9219 7.96774 16.5 7.96774ZM0 21.6559C0 30.6452 7.425 38 16.5 38C16.5 28.9086 9.075 21.6559 0 21.6559Z" fill="#63D1BB"/>
    </symbol>

    <symbol viewBox="0 0 34 27" id="heart" fill="none">
      <path d="M34 8.44964C34 3.78777 29.9818 0 25.0364 0C21.5333 0 18.5455 1.94245 17 4.66187C15.5576 1.94245 12.4667 0 8.96364 0C4.01818 0 0 3.78777 0 8.44964C0 17.2878 15.1455 27 17 27C18.9576 27 34 17.3849 34 8.44964Z" fill="#63D1BB"/>
    </symbol>

    <symbol viewBox="0 0 33 32" id="present" fill="none">
      <path d="M3.02752 32H15.6422V18.2716H3.02752V32ZM31.3853 8.69136H24.0183C24.5229 8.39506 25.0275 8.19753 25.4312 7.90123C27.0459 6.81481 27.8532 5.33333 27.8532 3.95062C27.8532 2.76543 27.2477 1.77777 26.4404 1.08641C25.633 0.395053 24.5229 0 23.4128 0C22.2018 0 20.9908 0.395053 20.0826 1.08641C18.5688 2.07406 17.4587 3.55555 16.6514 5.1358C16.6514 5.23456 16.5505 5.33333 16.5505 5.33333C16.2477 4.74073 15.945 4.14814 15.5413 3.55555C14.8349 2.56789 14.0275 1.679 13.0183 1.08641C12.0092 0.493818 10.8991 0 9.68807 0C8.47706 0 7.36697 0.49383 6.45871 1.28395C5.65137 2.07408 5.04587 3.16049 5.04587 4.34567C5.04587 5.03703 5.2477 5.82715 5.65137 6.51851C6.25687 7.4074 7.06422 8.09877 8.27523 8.69136H1.61467C0.706413 8.69136 0 9.38271 0 10.2716V16.0988H15.5413V8.69136H17.4587V16.0988H33V10.2716C33 9.38271 32.2936 8.69136 31.3853 8.69136ZM8.88073 6.41975C8.27522 6.02469 7.87155 5.62962 7.66972 5.33333C7.46788 4.93826 7.36696 4.64197 7.36696 4.34567C7.36696 3.85184 7.56881 3.35802 8.0734 2.86419C8.47707 2.46913 9.08256 2.17284 9.68807 2.17284C10.3945 2.17284 11.1009 2.37036 11.7064 2.86419C12.7156 3.55555 13.7248 4.64196 14.3303 6.02468C14.633 6.71604 14.9358 7.4074 15.1376 8.09876C12.0092 7.80246 9.99082 7.11111 8.88073 6.41975ZM19.4771 4.8395C20.0826 4.04938 20.6881 3.35802 21.3945 2.96296C22.1009 2.46914 22.8073 2.27161 23.4128 2.27161C24.0183 2.27161 24.5229 2.46914 24.9266 2.76543C25.3303 3.06173 25.5321 3.45679 25.5321 3.95062C25.5321 4.44444 25.2294 5.23456 24.0183 6.02468C22.9083 6.8148 20.8899 7.7037 17.8624 8.29629C18.1651 7.1111 18.7706 5.82715 19.4771 4.8395ZM17.4587 32H30.0734V18.2716H17.4587V32Z" fill="#63D1BB"/>
    </symbol>

    <symbol viewBox="0 0 55 23" id="rocket" fill="none">
      <path d="M40.9467 5.75002C37.307 4.75864 33.0607 4.06466 28.41 4.06466C25.478 4.06466 22.8493 4.26294 20.625 4.65949L13.75 0H0.10114L5.9651 6.14656H14.4577C9.80697 7.73277 7.58272 9.61639 7.58272 9.61639V13.3836C7.58272 13.3836 9.90811 15.2672 14.5588 16.8534H5.86396L0 23H13.6489L20.5239 18.3405C22.8492 18.7371 25.3768 18.9354 28.3088 18.9354C32.8584 18.9354 37.1048 18.2414 40.8456 17.25C39.6324 15.4655 38.9246 13.5819 38.9246 11.4009C39.0257 9.4181 39.8345 7.5345 40.9467 5.75002Z" fill="#63D1BB"/>
      <path d="M44.4853 6.74121C43.1709 8.32742 42.4632 9.91361 42.4632 11.4998C42.4632 13.086 43.1709 14.6722 44.4853 16.2585C50.9559 14.0774 55 11.4998 55 11.4998C55 11.4998 50.9559 8.92224 44.4853 6.74121Z" fill="#63D1BB"/>
    </symbol>

    <symbol viewBox="0 0 35 34" fill="none">
      <path d="M0.305558 13.9528C-0.101853 16.0303 -0.101853 18.1079 0.305558 20.1854L4.48152 17.0196L0.305558 13.9528Z" fill="#63D1BB"/>
      <path d="M24.852 1.586C19.9631 -0.590493 14.2594 -0.590493 9.26857 1.98172L16.9075 7.52187L24.852 1.586Z" fill="#63D1BB"/>
      <path d="M34.528 13.062L29.6391 16.7225L34.6299 20.3829C35.1392 18.0086 35.1392 15.4364 34.528 13.062Z" fill="#63D1BB"/>
      <path d="M9.37046 32.057C14.2594 34.5303 20.2687 34.7281 25.3613 32.1559L17.1113 26.1211L9.37046 32.057Z" fill="#63D1BB"/>
      <path d="M8.04639 14.2488L1.73152 9.698C1.42596 10.3905 1.1204 11.083 0.916698 11.7756L6.31489 15.7328L8.04639 14.2488Z" fill="#63D1BB"/>
      <path d="M18.9446 24.8349L27.3983 30.9686C27.7039 30.7707 28.0095 30.5729 28.2132 30.375C28.5187 30.1772 28.8243 29.8804 29.1298 29.5836L20.6761 23.4498L18.9446 24.8349Z" fill="#63D1BB"/>
      <path d="M11.6112 11.5781L4.07412 6.13684C3.56486 6.6315 3.15745 7.22509 2.75003 7.81867L9.77787 12.9631L11.6112 11.5781Z" fill="#63D1BB"/>
      <path d="M22.5094 22.1635L30.7595 28.1983C31.2688 27.7036 31.6762 27.11 32.0836 26.5165L24.2409 20.7784L22.5094 22.1635Z" fill="#63D1BB"/>
      <path d="M15.176 8.90696L7.33339 3.16895C7.12969 3.26788 6.92598 3.46574 6.72228 3.56467C6.31487 3.86146 5.90746 4.15826 5.6019 4.55398L13.4446 10.1931L15.176 8.90696Z" fill="#63D1BB"/>
      <path d="M26.0743 19.3936L33.204 24.538C33.5095 23.8455 33.8151 23.2519 34.1206 22.5594L27.9076 18.0085L26.0743 19.3936Z" fill="#63D1BB"/>
      <path d="M26.8891 2.67419L0.916698 22.3615C1.1204 23.054 1.42596 23.7466 1.73152 24.4391L28.7225 3.9603C28.2132 3.46564 27.6021 3.06992 26.8891 2.67419Z" fill="#63D1BB"/>
      <path d="M31.2688 6.53234C30.9632 6.13661 30.6576 5.74089 30.3521 5.44409L2.85186 26.2197C3.05557 26.7143 3.36113 27.11 3.66669 27.4068C3.76854 27.6047 3.97224 27.8026 4.0741 27.9015L31.778 7.12592C31.5743 6.92806 31.4725 6.7302 31.2688 6.53234Z" fill="#63D1BB"/>
      <path d="M32.8984 8.90674L5.70373 29.4844C6.21299 29.9791 6.82411 30.4738 7.43522 30.8695L33.9169 10.8854C33.6114 10.1928 33.3058 9.50033 32.8984 8.90674Z" fill="#63D1BB"/>
    </symbol>

    <symbol viewBox="0 0 25 24" id="phone" fill="currentColor">
      <path d="M17.44 24h-1.1a17.63 17.63 0 0 1-11.2-5.73A18.8 18.8 0 0 1 0 6.72V5.33c.1-.89.5-1.48 1.1-2.07.61-.7 1.62-1.48 2.53-1.58.7 0 1.81.5 2.22 1.09.4.49.6 1.58.8 2.37.2.88.6 1.97.5 2.76-.2 1.19-1.8 1.68-2.21 2.57a16.4 16.4 0 0 0 7.56 8.2c.8-.5 1.61-1.88 2.82-1.88.4 0 1.01.2 1.41.3.5.1.91.3 1.31.49.71.3 2.02.6 2.42 1.19.4.59.7 1.58.6 2.17-.3 1.28-2.41 2.66-3.62 3.06ZM12.6 1.48A10.8 10.8 0 0 1 23.5 12.15H25C25 5.43 19.46 0 12.6 0v1.48Z"/><path d="M12.6 9.19v1.58c.8 0 1.41.59 1.41 1.38h1.62a3 3 0 0 0-3.03-2.96ZM12.6 6.12a6.11 6.11 0 0 1 6.15 6.03h1.61c0-4.15-3.42-7.5-7.66-7.5v1.47h-.1Z"/>
    </symbol>

    <symbol viewBox="0 0 32 21" id="email" fill="currentColor">
      <path d="M28 0H4C1.8 0 0 1.8 0 4v13c0 2.2 1.8 4 4 4h24c2.2 0 4-1.8 4-4V4c0-2.2-1.8-4-4-4ZM2 5.3l7 5.3-7 5.3V5.3ZM30 17a2 2 0 0 1-2 2H4a2 2 0 0 1-2-2l7.8-5.9 4.4 3.3a3 3 0 0 0 3.6 0l4.4-3.3L30 17Zm0-1.2-7-5.3 7-5.3v10.6Zm-12.8-2.2c-.4.3-.8.4-1.2.4-.4 0-.9-.1-1.2-.4l-4.1-3.1-.8-.6L2 4c0-1.1.9-2 2-2h24a2 2 0 0 1 2 2l-12.8 9.6Z"/>
    </symbol>

    <symbol viewBox="0 0 47 81" id="flag" fill="none">
      <path d="M7.76611 3.86183V42.3812L47 23.072L7.76611 3.86183ZM0 80.9005V0H3.83261V80.9005H0Z" fill="#63D1BB"/>
      <path d="M7.76611 3.86183V42.3812L47 23.072L7.76611 3.86183ZM0 80.9005V0H3.83261V80.9005H0Z" fill="black" fill-opacity="0.2"/>
      <path d="M3.83262 0.0996094H0V81.0001H3.83262V0.0996094Z" fill="#231F20"/>
    </symbol>
  </svg>
