<svg width="20" height="18" viewBox="0 0 20 18" fill="none" xmlns="http://www.w3.org/2000/svg"><path fill-rule="evenodd" clip-rule="evenodd" d="M19.4608.6529a.65654.65654 0 0 1 .2264.61158L17.0611 17.0214a.65688.65688 0 0 1-.3866.4945.6564.6564 0 0 1-.6252-.0562l-7.87848-5.2523a.65654.65654 0 0 1-.14849-.9564L10.633 7.98773 6.27303 10.8944c-.19603.1306-.44706.1463-.65779.0409L.36294 8.30915c-.23525-.11762-.3776-.36427-.36174-.6268.01585-.26252.18684-.49025.43453-.57871L18.8188.53826a.65658.65658 0 0 1 .642.11464ZM2.32626 7.82275l3.53542 1.76771L13.4231 4.5495c.2694-.17956.6294-.13601.8481.1026.2188.2386.231.60104.0288.85381L9.49502 11.5121l6.43778 4.2918 2.2755-13.65332L2.32626 7.82275Z" fill="#231F20"/></svg>