<svg width="21" height="18" viewBox="0 0 21 18" fill="none" xmlns="http://www.w3.org/2000/svg">
<path fill-rule="evenodd" clip-rule="evenodd" d="M20.2017 0.247388C20.3803 0.396699 20.4664 0.62938 20.4282 0.858964L17.802 16.6159C17.7654 16.8356 17.6198 17.0218 17.4154 17.1104C17.211 17.1989 16.9756 17.1778 16.7902 17.0542L8.91179 11.8019C8.75868 11.6998 8.65543 11.5382 8.6272 11.3564C8.59897 11.1745 8.64835 10.9892 8.7633 10.8455L11.3739 7.58221L7.014 10.4888C6.81796 10.6195 6.56693 10.6352 6.3562 10.5298L1.1039 7.90364C0.868659 7.78602 0.726314 7.53936 0.742167 7.27684C0.758019 7.01431 0.929011 6.78658 1.17669 6.69812L19.5598 0.13274C19.7789 0.054458 20.0232 0.0980771 20.2017 0.247388ZM3.06723 7.41724L6.60265 9.18495L14.1641 4.14399C14.4334 3.96443 14.7935 4.00798 15.0122 4.24658C15.231 4.48518 15.2432 4.84762 15.0409 5.10039L10.236 11.1066L16.6737 15.3984L18.9493 1.74506L3.06723 7.41724Z" fill="#231F20"/>
</svg>
