<svg width="28" height="18" viewBox="0 0 28 18" fill="none" xmlns="http://www.w3.org/2000/svg">
<path d="M0.740967 2.43324C0.740967 1.57821 1.25607 1.11716 2.28628 1.0501L6.25612 1.07525C6.52255 1.07525 6.70017 1.20099 6.78898 1.45247C7.19751 2.70987 7.65489 3.79542 8.16111 4.70913C8.66733 5.62284 9.32897 6.67486 10.146 7.86519C10.2171 8.01608 10.3325 8.09152 10.4924 8.09152C10.6167 8.09152 10.7144 8.03285 10.7855 7.91549L10.8654 7.63886L10.892 3.28827C10.892 2.98649 10.8166 2.78531 10.6656 2.68472C10.5146 2.58413 10.2348 2.50868 9.82631 2.45839C9.50659 2.40809 9.34674 2.22367 9.34674 1.90513C9.34674 1.83807 9.35562 1.78778 9.37338 1.75425C9.74638 0.664502 10.8121 0.11963 12.5706 0.11963L14.0626 0.0944824C14.7376 0.0944824 15.2971 0.253753 15.7411 0.572293C16.1852 0.890834 16.4072 1.39379 16.4072 2.08117V7.78975C16.5315 7.87358 16.647 7.91549 16.7536 7.91549C17.02 7.91549 17.2509 7.7646 17.4463 7.46283C19.4001 4.88097 20.457 3.15415 20.6168 2.28235C20.6168 2.26559 20.6346 2.22367 20.6701 2.15661C20.7944 1.90513 20.9987 1.68718 21.2829 1.50277C21.5671 1.31835 21.8158 1.19261 22.0289 1.12555C22.1 1.09202 22.1799 1.07525 22.2687 1.07525H26.3984L26.6648 1.1004C27.0201 1.1004 27.2954 1.25967 27.4908 1.57821C27.5618 1.6788 27.6107 1.78778 27.6373 1.90513C27.664 2.02249 27.6817 2.13985 27.6906 2.2572C27.6995 2.37456 27.7039 2.44162 27.7039 2.45839V2.63442C27.5796 3.3218 27.2643 4.05528 26.7581 4.83487C26.2519 5.61445 25.608 6.45691 24.8265 7.36223C24.0449 8.26756 23.5565 8.86273 23.3611 9.14774C23.2012 9.34892 23.1213 9.53334 23.1213 9.70099C23.1213 9.83511 23.1923 9.986 23.3344 10.1537L27.2244 14.7809C27.4375 15.0491 27.5441 15.3425 27.5441 15.6611C27.5441 16.0467 27.3842 16.3652 27.0645 16.6167C26.7448 16.8682 26.3629 17.0107 25.9188 17.0442L25.4659 17.0693H21.4161C21.3984 17.0693 21.3628 17.0735 21.3096 17.0819C21.2563 17.0903 21.2207 17.0945 21.203 17.0945C20.8122 17.0945 20.4481 16.9352 20.1106 16.6167C19.9863 16.4825 19.1514 15.4934 17.6061 13.6492C17.5173 13.5319 17.393 13.4229 17.2331 13.3223C17.1621 13.5905 17.0688 13.9761 16.9534 14.4791C16.8379 14.9821 16.7536 15.3425 16.7003 15.5605L16.6203 15.988C16.4427 16.5748 16.0697 16.9268 15.5013 17.0442L15.1283 17.0693H12.5173C11.043 17.0693 9.5732 16.4323 8.10782 15.1581C6.64245 13.8839 5.3236 12.2367 4.1513 10.2165C2.979 8.19631 1.88663 5.84498 0.874183 3.16253C0.785372 2.94458 0.740967 2.70148 0.740967 2.43324ZM16.7536 8.94655C16.3806 8.94655 16.0431 8.85015 15.7411 8.65735C15.4392 8.46455 15.2882 8.2005 15.2882 7.86519V2.08117C15.2882 1.74586 15.1994 1.50696 15.0217 1.36445C14.8441 1.22195 14.5333 1.1507 14.0892 1.1507L12.5706 1.20099C11.8068 1.20099 11.2295 1.32673 10.8388 1.57821C11.6203 1.93028 12.0111 2.5003 12.0111 3.28827V7.7143C11.9755 8.13344 11.7979 8.48132 11.4782 8.75794C11.1585 9.03457 10.8032 9.17288 10.4125 9.17288C9.8796 9.17288 9.47107 8.92979 9.18688 8.44359C7.80143 6.46529 6.77122 4.58758 6.09626 2.81046L5.85647 2.15661L2.31292 2.13146C2.08201 2.13146 1.95323 2.14404 1.92659 2.16919C1.89995 2.19433 1.88663 2.26559 1.88663 2.38294C1.88663 2.53383 1.90439 2.6931 1.93991 2.86075L2.49942 4.26904C3.99144 7.90711 5.61224 10.774 7.36181 12.8696C9.11139 14.9653 10.8299 16.0131 12.5173 16.0131H15.1816C15.2882 16.0131 15.3681 15.9838 15.4214 15.9251C15.4747 15.8664 15.5191 15.7533 15.5546 15.5856L15.6079 15.3341L16.1141 13.1211C16.2562 12.8193 16.3806 12.6182 16.4871 12.5176C16.6825 12.3331 16.9134 12.2409 17.1798 12.2409C17.6061 12.2409 18.0413 12.484 18.4854 12.9702L20.75 15.6862C20.8921 15.9041 21.0431 16.0131 21.203 16.0131H25.5991C26.132 16.0131 26.3984 15.8874 26.3984 15.6359C26.3984 15.5521 26.3718 15.4683 26.3185 15.3844L22.4552 10.8326C22.1533 10.4806 22.0023 10.1034 22.0023 9.70099C22.0023 9.29862 22.1444 8.91302 22.4286 8.54419C22.6595 8.20888 23.108 7.65144 23.7741 6.87185C24.4401 6.09226 25.0218 5.36297 25.5192 4.68398C26.0165 4.00499 26.3451 3.38886 26.505 2.83561L26.5849 2.50868C26.5672 2.47515 26.5583 2.42067 26.5583 2.34522C26.5583 2.26978 26.5494 2.20691 26.5316 2.15661H22.3486C22.0822 2.2572 21.8691 2.40809 21.7092 2.60928L21.5493 3.08709C21.1053 4.24389 19.9419 6.02939 18.0591 8.44359C17.6861 8.7789 17.2509 8.94655 16.7536 8.94655Z" fill="#231F20"/>
</svg>
