<svg width="28" height="18" viewBox="0 0 28 18" fill="none" xmlns="http://www.w3.org/2000/svg"><path d="M.741 2.433c0-.855.515-1.316 1.545-1.383l3.97.025a.52.52 0 0 1 .533.377c.409 1.258.866 2.343 1.372 3.257.506.914 1.168 1.966 1.985 3.156.071.151.186.227.346.227.125 0 .222-.06.293-.177l.08-.276.027-4.35c0-.303-.075-.504-.226-.604-.151-.1-.431-.176-.84-.227-.32-.05-.48-.234-.48-.553 0-.067.01-.117.027-.15C9.746.664 10.813.12 12.571.12l1.492-.026c.675 0 1.234.16 1.678.478.444.319.666.822.666 1.51V7.79a.63.63 0 0 0 .347.125c.266 0 .497-.15.692-.452 1.954-2.582 3.011-4.309 3.17-5.18 0-.017.019-.06.054-.126.124-.252.329-.47.613-.654.284-.185.533-.31.746-.377a.555.555 0 0 1 .24-.05h4.13l.266.024c.355 0 .63.16.826.478.07.1.12.21.146.327.027.117.045.235.054.352.009.118.013.185.013.201v.176c-.124.688-.44 1.421-.946 2.2-.506.78-1.15 1.623-1.931 2.528-.782.906-1.27 1.5-1.466 1.786-.16.2-.24.385-.24.553 0 .134.071.285.213.453l3.89 4.627c.213.268.32.561.32.88 0 .386-.16.704-.48.956-.32.251-.701.394-1.145.427l-.453.025h-4.05a.861.861 0 0 0-.106.013.864.864 0 0 1-.107.012c-.39 0-.755-.159-1.092-.477-.125-.134-.96-1.124-2.505-2.968a1.385 1.385 0 0 0-.373-.327c-.07.269-.164.654-.28 1.157-.115.503-.2.864-.253 1.082l-.08.427c-.177.587-.55.939-1.119 1.056l-.373.025h-2.61c-1.475 0-2.945-.637-4.41-1.91-1.466-1.275-2.784-2.922-3.957-4.943C2.98 8.197 1.887 5.845.874 3.163a1.916 1.916 0 0 1-.133-.73Zm16.013 6.514c-.373 0-.71-.097-1.013-.29-.302-.192-.453-.457-.453-.792V2.081c0-.335-.089-.574-.266-.717-.178-.142-.489-.213-.933-.213l-1.518.05c-.764 0-1.341.126-1.732.377.781.352 1.172.922 1.172 1.71v4.426a1.5 1.5 0 0 1-.533 1.044 1.59 1.59 0 0 1-1.066.415c-.532 0-.94-.243-1.225-.73C7.8 6.466 6.77 4.589 6.097 2.81l-.24-.653-3.544-.026c-.231 0-.36.013-.386.038-.027.025-.04.097-.04.214 0 .15.017.31.053.478l.56 1.408c1.491 3.638 3.112 6.505 4.862 8.6 1.75 2.096 3.468 3.144 5.155 3.144h2.665c.106 0 .186-.03.24-.088.053-.059.097-.172.133-.34l.053-.25.506-2.214c.142-.302.267-.503.373-.603a.975.975 0 0 1 .693-.277c.426 0 .861.243 1.305.73l2.265 2.715c.142.218.293.327.453.327h4.396c.533 0 .8-.126.8-.377a.466.466 0 0 0-.08-.252l-3.864-4.551c-.302-.352-.453-.73-.453-1.132 0-.402.142-.788.427-1.157.23-.335.679-.893 1.345-1.672a37.716 37.716 0 0 0 1.745-2.188c.498-.679.826-1.295.986-1.848l.08-.327a.371.371 0 0 1-.027-.164.572.572 0 0 0-.026-.188h-4.183c-.267.1-.48.251-.64.452l-.16.478c-.444 1.157-1.607 2.942-3.49 5.357a1.892 1.892 0 0 1-1.305.503Z" fill="#231F20"/></svg>