<svg width="25" height="19" viewBox="0 0 25 19" fill="none" xmlns="http://www.w3.org/2000/svg">
<path d="M16.5919 8.88723L11.3555 5.39632C11.2569 5.33139 11.1426 5.29433 11.0247 5.28908C10.9067 5.28382 10.7895 5.31056 10.6856 5.36647C10.5816 5.42237 10.4947 5.50536 10.434 5.60664C10.3733 5.70792 10.3412 5.82372 10.341 5.94177V12.9236C10.3411 13.0426 10.3737 13.1593 10.4352 13.2612C10.4967 13.3631 10.5848 13.4462 10.6901 13.5018C10.7934 13.5576 10.9101 13.584 11.0273 13.5782C11.1446 13.5724 11.2581 13.5347 11.3555 13.469L16.5919 9.97814C16.6819 9.91843 16.7557 9.83738 16.8068 9.74221C16.8579 9.64703 16.8846 9.5407 16.8846 9.43268C16.8846 9.32467 16.8579 9.21834 16.8068 9.12316C16.7557 9.02799 16.6819 8.94694 16.5919 8.88723ZM11.6501 11.7018V7.16359L15.0537 9.43268L11.6501 11.7018ZM24.1301 3.13814C24.0351 2.76995 23.8541 2.42959 23.6018 2.14509C23.3496 1.86059 23.0333 1.6401 22.6791 1.50177C18.9592 0.0726831 12.9919 0.0945016 12.741 0.0945016C12.4901 0.0945016 6.52279 0.0726831 2.80279 1.50177C2.44861 1.6401 2.13237 1.86059 1.88011 2.14509C1.62786 2.42959 1.44681 2.76995 1.35188 3.13814C1.06824 4.20723 0.740967 6.17087 0.740967 9.43268C0.740967 12.6945 1.06824 14.6581 1.35188 15.7272C1.44681 16.0954 1.62786 16.4358 1.88011 16.7203C2.13237 17.0048 2.44861 17.2253 2.80279 17.3636C6.52279 18.7927 12.4901 18.7709 12.741 18.7709H12.8173C13.5701 18.7709 19.1337 18.7272 22.6791 17.3636C23.0333 17.2253 23.3496 17.0048 23.6018 16.7203C23.8541 16.4358 24.0351 16.0954 24.1301 15.7272C24.4137 14.6581 24.741 12.6945 24.741 9.43268C24.741 6.17087 24.4137 4.20723 24.1301 3.13814ZM22.8646 15.4C22.8217 15.5664 22.74 15.7204 22.6263 15.8493C22.5125 15.9782 22.3699 16.0785 22.2101 16.1418C18.7191 17.4836 12.8064 17.4618 12.741 17.4618C12.6755 17.4618 6.76278 17.4836 3.27188 16.1418C3.11204 16.0785 2.96943 15.9782 2.85568 15.8493C2.74193 15.7204 2.66026 15.5664 2.61733 15.4C2.35551 14.3963 2.05006 12.5527 2.05006 9.43268C2.05006 6.31268 2.35551 4.46905 2.61733 3.46541C2.66026 3.29893 2.74193 3.14495 2.85568 3.01604C2.96943 2.88712 3.11204 2.78692 3.27188 2.72359C6.76278 1.38177 12.6755 1.40359 12.741 1.40359C12.8064 1.40359 18.7191 1.38177 22.2101 2.72359C22.3699 2.78692 22.5125 2.88712 22.6263 3.01604C22.74 3.14495 22.8217 3.29893 22.8646 3.46541C23.1264 4.46905 23.4319 6.31268 23.4319 9.43268C23.4319 12.5527 23.1264 14.3963 22.8646 15.4Z" fill="#231F20"/>
</svg>
